Coordinates
version=1
nRows=19
nColumns=24
inDegrees=yes

Units are S.I. units (second, meters, Newtons, ...)
Angles are in degrees.

endheader
time	pelvis_tilt	pelvis_list	pelvis_rotation	pelvis_tx	pelvis_ty	pelvis_tz	hip_flexion_r	hip_adduction_r	hip_rotation_r	knee_angle_r	ankle_angle_r	subtalar_angle_r	mtp_angle_r	hip_flexion_l	hip_adduction_l	hip_rotation_l	knee_angle_l	ankle_angle_l	subtalar_angle_l	mtp_angle_l	lumbar_extension	lumbar_bending	lumbar_rotation
      1.06250000	     -1.94860567	      3.31837472	      0.61047458	      0.58041403	      1.01595296	      0.26563021	     12.59725592	      1.19241861	      1.89120163	    -18.89082067	      3.37443394	     -9.95864495	     13.14215282	     12.74413585	      3.84523265	     -3.39722564	    -63.22414190	      2.31051497	     -8.36483173	     11.06865074	     -1.17774674	     -2.20551871	      2.95157360
      1.06666667	     -1.94279763	      3.38984842	      0.30178717	      0.58519340	      1.01654046	      0.26605072	     12.18429104	      1.14077164	      2.00051202	    -18.61057502	      3.47238960	     -9.70146190	     13.24497481	     13.30579126	      3.85961052	     -3.69978319	    -62.99788964	      2.48638577	     -8.29873816	     11.02852491	     -1.19725890	     -2.28066268	      3.20935599
      1.07083333	     -1.93934881	      3.45840319	     -0.00853905	      0.58995796	      1.01710231	      0.26648318	     11.77457881	      1.09166150	      2.12470420	    -18.32753790	      3.53987966	     -9.47528669	     13.31078475	     13.86261774	      3.85849491	     -4.01670710	    -62.73772925	      2.64604468	     -8.27553688	     11.00386195	     -1.21731930	     -2.35975547	      3.38089755
      1.07500000	     -1.92759162	      3.53858077	     -0.30252017	      0.59472356	      1.01766043	      0.26687510	     11.35632482	      1.02072027	      2.22532594	    -18.05021238	      3.66998574	     -9.20266509	     13.42672538	     14.39576191	      3.88111386	     -4.29336566	    -62.42932084	      2.80819012	     -8.22224668	     10.95897069	     -1.23879441	     -2.44345547	      3.73131563
      1.07916667	     -1.92007005	      3.60709900	     -0.59795388	      0.59945520	      1.01818299	      0.26726844	     10.94044429	      0.96340199	      2.35725572	    -17.75858115	      3.72333302	     -9.00643599	     13.46840896	     14.93099013	      3.88207290	     -4.58042862	    -62.09854800	      2.95177742	     -8.23436434	     10.94352336	     -1.25917515	     -2.49947177	      3.82350638
      1.08333333	     -1.90979010	      3.67829722	     -0.89216968	      0.60417987	      1.01865686	      0.26767937	     10.53664800	      0.89817214	      2.45783453	    -17.50185652	      3.87142125	     -8.73116556	     13.58158387	     15.45457756	      3.87425371	     -4.87304675	    -61.74018523	      3.10179761	     -8.18561768	     10.89792519	     -1.28785627	     -2.59769629	      4.21631521
      1.08750000	     -1.90330609	      3.74688795	     -1.18316368	      0.60888749	      1.01910595	      0.26807148	     10.13485255	      0.83335930	      2.57688470	    -17.23697630	      3.97701052	     -8.50107671	     13.69102514	     15.97352830	      3.86455965	     -5.15628697	    -61.34779834	      3.22961744	     -8.19351291	     10.85065261	     -1.30919201	     -2.67605020	      4.45916693
      1.09166667	     -1.91560265	      3.79411958	     -1.46135481	      0.61358466	      1.01949418	      0.26844043	      9.74597489	      0.79021336	      2.70823887	    -16.95507517	      4.02906380	     -8.31697711	     13.73106695	     16.50802854	      3.83046665	     -5.42146159	    -60.93697958	      3.35990994	     -8.22090604	     10.83373818	     -1.31256359	     -2.71378345	      4.54386372
      1.09583333	     -1.91006163	      3.85966928	     -1.74578624	      0.61827373	      1.01986787	      0.26882868	      9.35528543	      0.72219104	      2.81611945	    -16.71041222	      4.18070746	     -8.07192085	     13.83267609	     17.01032158	      3.80703059	     -5.69882330	    -60.48708998	      3.47971945	     -8.20071923	     10.78686299	     -1.33088587	     -2.80224844	      4.90860718
      1.10000000	     -1.92034202	      3.90915317	     -2.01529474	      0.62294046	      1.02019770	      0.26918123	      8.97139586	      0.67040176	      2.95306915	    -16.44151248	      4.23804735	     -7.88966589	     13.87013132	     17.52423923	      3.77084312	     -5.95083641	    -60.01404509	      3.58763315	     -8.23900240	     10.76902845	     -1.34184880	     -2.84660594	      4.99058321
      1.10416667	     -1.89432107	      3.97120011	     -2.30469316	      0.62761075	      1.02054328	      0.26957194	      8.56739634	      0.59982325	      3.06073722	    -16.21053382	      4.37789336	     -7.65845319	     13.94859364	     17.98082370	      3.73259642	     -6.23656023	    -59.49757881	      3.68134212	     -8.24537401	     10.72853610	     -1.37503763	     -2.93706672	      5.29096825
      1.10833333	     -1.91223435	      4.01707791	     -2.56654868	      0.63227347	      1.02081072	      0.26989843	      8.20043415	      0.54329713	      3.17645070	    -15.96101731	      4.49098021	     -7.45046034	     14.03055918	     18.47988786	      3.69170272	     -6.46878046	    -58.96048912	      3.76870012	     -8.26299118	     10.68231334	     -1.36675652	     -2.98277741	      5.53904054
      1.11250000	     -1.89838748	      4.05849158	     -2.83321689	      0.63691366	      1.02108487	      0.27023532	      7.80139577	      0.48912371	      3.30438847	    -15.71242133	      4.58574964	     -7.25710833	     14.09365706	     18.93395099	      3.63970716	     -6.70643372	    -58.39547244	      3.84603879	     -8.27550530	     10.64462794	     -1.40319111	     -3.02897562	      5.71158408
      1.11666667	     -1.89570036	      4.10355964	     -3.09212357	      0.64153432	      1.02130977	      0.27055829	      7.42017709	      0.42823861	      3.43255582	    -15.47520646	      4.70857769	     -7.04328051	     14.17632308	     19.39146054	      3.59622010	     -6.92178398	    -57.80139094	      3.91128832	     -8.28013091	     10.59147151	     -1.44022645	     -3.08670688	      5.97032956
      1.12083333	     -1.90063551	      4.13312295	     -3.34655883	      0.64614656	      1.02149696	      0.27087059	      7.04265603	      0.38273302	      3.57267280	    -15.22746597	      4.77659880	     -6.87217439	     14.20686547	     19.84830017	      3.53008616	     -7.13624994	    -57.18765504	      3.96253103	     -8.28876580	     10.57104888	     -1.46185430	     -3.12195262	      6.04723489
      1.12500000	     -1.89572825	      4.17876020	     -3.60501965	      0.65076803	      1.02165850	      0.27117113	      6.67282203	      0.31250681	      3.68006264	    -15.01932365	      4.93117831	     -6.65046747	     14.27720140	     20.27644329	      3.48372761	     -7.34637403	    -56.52900566	      4.00280779	     -8.27481093	     10.51953764	     -1.48287549	     -3.17643544	      6.35982560
      1.12916667	     -1.89697307	      4.21181893	     -3.86019042	      0.65537248	      1.02178068	      0.27146503	      6.30619462	      0.25544861	      3.80510241	    -14.80124071	      5.04338398	     -6.45471825	     14.33825344	     20.70276796	      3.42205763	     -7.54574339	    -55.85116892	      4.02480302	     -8.25929673	     10.47082085	     -1.50432266	     -3.21692656	      6.54796101
      1.13333333	     -1.92088839	      4.23325427	     -4.11072050	      0.65997255	      1.02184080	      0.27174267	      5.96584234	      0.20985474	      3.93206715	    -14.58745967	      5.14870452	     -6.26711022	     14.39524107	     21.14373279	      3.34692612	     -7.73137985	    -55.15219045	      4.03943415	     -8.22813322	     10.42183965	     -1.49965636	     -3.23813842	      6.74139464
      1.13750000	     -1.90686020	      4.25695813	     -4.35567981	      0.66456917	      1.02193541	      0.27201558	      5.58170324	      0.15541213	      4.05059974	    -14.36817177	      5.25977689	     -6.08255472	     14.43948216	     21.52755765	      3.27898451	     -7.90354986	    -54.41606072	      4.03453660	     -8.18600470	     10.38208305	     -1.54271056	     -3.27290925	      6.90486626
